<?xml version='1.0' encoding='utf-8'?>
<svg xmlns="http://www.w3.org/2000/svg" xmlns:xlink="http://www.w3.org/1999/xlink" width="256" zoomAndPan="magnify" viewBox="0 0 256 256" height="256" preserveAspectRatio="xMidYMid meet" version="1.2" baseProfile="tiny-ps"><title>Fabinha</title><g transform="translate(24,24) scale(0.7)"><g transform="translate(32,32) scale(0.75)"><defs><clipPath id="f3462c24ab"><path d="M 33.92 301.5 L 341.07 301.5 L 341.07 304.30 L 33.92 304.30 Z M 33.92 301.5 "/></clipPath><clipPath id="95e3c16620"><path d="M 33.02 300.60 L 341.96 300.60 L 341.96 305.10 L 33.02 305.10 Z M 33.02 300.60 "/></clipPath><clipPath id="7019e03848"><path d="M 22.19 37.5 L 302 37.5 L 302 132.75 L 22.19 132.75 Z M 22.19 37.5 "/></clipPath><clipPath id="3e5ccfeb23"><path d="M 190 39 L 352.94 39 L 352.94 131 L 190 131 Z M 190 39 "/></clipPath><clipPath id="ee6063cefe"><rect x="0" width="278" y="0" height="140"/></clipPath></defs><g id="ad39e933f2"><g clip-rule="nonzero" clip-path="url(#f3462c24ab)"><g transform="matrix(0.17,0,0,0.17,33.02,99.17)"/></g><g clip-rule="nonzero" clip-path="url(#95e3c16620)"><path style="fill:none;stroke-width:2;stroke-linecap:butt;stroke-linejoin:miter;stroke:#000000;stroke-opacity:1;stroke-miterlimit:4;" d="M 0.00 0.00 L 0.00 6.12 L 411.92 6.12 L 411.92 0.00 L 0.00 0.00 " transform="matrix(0.75,0,0,0.75,33.02,300.60)"/></g><g clip-rule="nonzero" clip-path="url(#7019e03848)"><path style=" stroke:none;fill-rule:evenodd;fill:#000000;fill-opacity:1;" d="M 27.22 131.55 L 162.07 44.31 C 162.07 44.31 296.92 131.55 296.92 131.55 C 298.31 132.45 300.18 132.05 301.08 130.66 C 301.98 129.26 301.58 127.39 300.19 126.49 C 300.19 126.49 163.71 38.19 163.71 38.19 C 162.71 37.55 161.43 37.55 160.43 38.19 C 160.43 38.19 23.95 126.49 23.95 126.49 C 22.55 127.39 22.16 129.26 23.06 130.66 C 23.96 132.05 25.82 132.45 27.22 131.55 Z M 27.22 131.55 "/></g><g clip-rule="nonzero" clip-path="url(#3e5ccfeb23)"><path style=" stroke:none;fill-rule:evenodd;fill:#000000;fill-opacity:1;" d="M 195.41 62.15 L 220.21 46.10 C 220.21 46.10 347.70 129.74 347.70 129.74 C 349.09 130.65 350.96 130.26 351.87 128.87 C 352.78 127.48 352.39 125.61 351.00 124.70 C 351.00 124.70 221.87 39.99 221.87 39.99 C 220.88 39.33 219.59 39.33 218.58 39.98 C 218.58 39.98 207.60 47.08 192.14 57.09 C 190.74 57.99 190.34 59.86 191.24 61.26 C 192.14 62.65 194.01 63.05 195.41 62.15 Z M 195.41 62.15 "/></g><path style=" stroke:none;fill-rule:evenodd;fill:#000000;fill-opacity:1;" d="M 100.47 81.46 L 100.47 58.71 C 100.47 57.05 99.12 55.71 97.46 55.71 L 72.37 55.71 C 70.71 55.71 69.37 57.05 69.37 58.71 L 69.37 98.75 C 69.37 100.41 70.71 101.75 72.37 101.75 C 74.03 101.75 75.37 100.41 75.37 98.75 L 75.37 61.71 C 75.37 61.71 94.46 61.71 94.46 61.71 L 94.46 81.46 C 94.46 83.11 95.81 84.46 97.46 84.46 C 99.12 84.46 100.47 83.11 100.47 81.46 Z M 100.47 81.46 "/><g style="fill:#000000;fill-opacity:1;"><g transform="translate(16.13, 191.89)"><path style="stroke:none" d="M 30.28 -32.31 C 30.28 -32.17 30.15 -32.10 29.90 -32.10 C 29.66 -32.10 29.54 -32.17 29.54 -32.31 C 29.28 -34.68 28.47 -36.50 27.10 -37.78 C 25.75 -39.05 23.97 -39.68 21.78 -39.68 L 18.17 -39.68 C 16.19 -39.68 14.84 -39.41 14.14 -38.85 C 13.44 -38.31 13.09 -37.27 13.09 -35.73 L 13.09 -21.32 L 19.42 -21.32 C 21.78 -21.32 23.49 -21.70 24.54 -22.46 C 25.59 -23.23 26.12 -24.43 26.12 -26.06 C 26.12 -26.14 26.25 -26.18 26.51 -26.18 C 26.78 -26.18 26.92 -26.14 26.92 -26.06 L 26.84 -20.59 C 26.84 -19.32 26.86 -18.35 26.92 -17.70 L 26.98 -14.40 C 26.98 -14.32 26.84 -14.28 26.57 -14.28 C 26.31 -14.28 26.18 -14.32 26.18 -14.40 C 26.18 -16.34 25.64 -17.73 24.54 -18.59 C 23.45 -19.44 21.67 -19.87 19.21 -19.87 L 13.09 -19.87 L 13.09 -5.59 C 13.09 -4.18 13.28 -3.16 13.65 -2.53 C 14.03 -1.89 14.75 -1.44 15.82 -1.18 C 16.89 -0.92 18.59 -0.79 20.92 -0.79 C 21.01 -0.79 21.06 -0.66 21.06 -0.39 C 21.06 -0.12 21.01 0 20.92 0 C 19.12 0 17.72 -0.01 16.71 -0.06 L 10.59 -0.12 L 6.12 -0.06 C 5.28 -0.01 4.14 0 2.70 0 C 2.56 0 2.5 -0.12 2.5 -0.39 C 2.5 -0.66 2.56 -0.79 2.70 -0.79 C 4.32 -0.79 5.51 -0.90 6.28 -1.12 C 7.05 -1.34 7.57 -1.76 7.85 -2.40 C 8.14 -3.03 8.29 -4.01 8.29 -5.32 L 8.29 -35.79 C 8.29 -37.11 8.16 -38.08 7.89 -38.70 C 7.62 -39.31 7.12 -39.74 6.37 -39.98 C 5.63 -40.22 4.45 -40.34 2.82 -40.34 C 2.74 -40.34 2.70 -40.47 2.70 -40.73 C 2.70 -41.00 2.74 -41.14 2.82 -41.14 L 29.54 -41.14 C 29.94 -41.14 30.14 -40.94 30.14 -40.54 Z M 30.28 -32.31 "/></g></g><g style="fill:#000000;fill-opacity:1;"><g transform="translate(59.70, 191.89)"><path style="stroke:none" d="M 46.20 -0.79 C 46.37 -0.79 46.46 -0.66 46.46 -0.39 C 46.46 -0.12 46.37 0 46.20 0 C 45.36 0 44.07 -0.03 42.31 -0.12 C 40.56 -0.21 39.26 -0.26 38.43 -0.26 C 37.42 -0.26 36.17 -0.21 34.68 -0.12 C 33.28 -0.03 32.17 0 31.39 0 C 31.21 0 31.12 -0.12 31.12 -0.39 C 31.12 -0.66 31.21 -0.79 31.39 -0.79 C 32.97 -0.79 34.10 -0.93 34.78 -1.21 C 35.45 -1.5 35.79 -2.01 35.79 -2.76 C 35.79 -3.42 35.48 -4.40 34.87 -5.71 L 29.21 -17.57 L 13.48 -17.57 L 9.60 -8.56 C 9.03 -7.23 8.75 -6.03 8.75 -4.93 C 8.75 -2.17 10.87 -0.79 15.14 -0.79 C 15.35 -0.79 15.46 -0.66 15.46 -0.39 C 15.46 -0.12 15.35 0 15.14 0 C 14.34 0 13.20 -0.03 11.71 -0.12 C 10.05 -0.21 8.60 -0.26 7.37 -0.26 C 6.26 -0.26 4.92 -0.21 3.35 -0.12 C 2.03 -0.03 0.91 0 0 0 C -0.21 0 -0.32 -0.12 -0.32 -0.39 C -0.32 -0.66 -0.21 -0.79 0 -0.79 C 1.22 -0.79 2.26 -1.02 3.12 -1.48 C 3.97 -1.94 4.80 -2.75 5.59 -3.93 C 6.38 -5.12 7.26 -6.85 8.23 -9.14 L 22.10 -41.65 C 22.20 -41.78 22.37 -41.85 22.64 -41.85 C 22.89 -41.85 23.05 -41.78 23.09 -41.65 L 38.76 -9.01 C 40.25 -5.81 41.52 -3.64 42.57 -2.5 C 43.62 -1.36 44.83 -0.79 46.20 -0.79 Z M 14.07 -18.95 L 28.56 -18.95 L 20.92 -34.87 Z M 14.07 -18.95 "/></g></g><g style="fill:#000000;fill-opacity:1;"><g transform="translate(115.91, 191.89)"><path style="stroke:none" d="M 22.17 -23.17 C 25.67 -22.85 28.5 -21.67 30.62 -19.64 C 32.75 -17.59 33.82 -15.08 33.82 -12.10 C 33.82 -9.78 33.23 -7.67 32.04 -5.79 C 30.86 -3.91 29.25 -2.42 27.21 -1.34 C 25.17 -0.26 22.88 0.26 20.34 0.26 C 18.93 0.26 17.39 0.19 15.73 0.06 C 15.11 0.01 14.39 -0.01 13.56 -0.06 C 12.72 -0.10 11.78 -0.12 10.73 -0.12 L 6.18 -0.06 C 5.35 -0.01 4.23 0 2.82 0 C 2.74 0 2.70 -0.12 2.70 -0.39 C 2.70 -0.66 2.74 -0.79 2.82 -0.79 C 4.41 -0.79 5.58 -0.91 6.34 -1.15 C 7.11 -1.39 7.64 -1.82 7.92 -2.43 C 8.21 -3.05 8.35 -4.01 8.35 -5.32 L 8.35 -35.79 C 8.35 -37.11 8.22 -38.08 7.95 -38.70 C 7.69 -39.31 7.18 -39.74 6.43 -39.98 C 5.69 -40.22 4.53 -40.34 2.96 -40.34 C 2.83 -40.34 2.76 -40.47 2.76 -40.73 C 2.76 -41.00 2.83 -41.14 2.96 -41.14 L 6.18 -41.06 C 8.03 -40.97 9.54 -40.93 10.73 -40.93 C 11.51 -40.93 12.24 -40.95 12.92 -41 C 13.60 -41.03 14.19 -41.08 14.67 -41.14 C 16.03 -41.26 17.33 -41.32 18.56 -41.32 C 22.33 -41.32 25.16 -40.53 27.04 -38.95 C 28.92 -37.37 29.87 -35.27 29.87 -32.64 C 29.87 -30.53 29.19 -28.66 27.82 -27.01 C 26.47 -25.36 24.58 -24.08 22.17 -23.17 Z M 17.25 -40.28 C 16.14 -40.28 15.31 -40.17 14.76 -39.98 C 14.22 -39.78 13.81 -39.35 13.54 -38.68 C 13.28 -38.03 13.15 -37.02 13.15 -35.67 L 13.15 -23.17 L 16.12 -23.09 C 19.15 -23.09 21.40 -23.92 22.87 -25.59 C 24.34 -27.26 25.07 -29.46 25.07 -32.18 C 25.07 -34.64 24.43 -36.60 23.15 -38.07 C 21.88 -39.54 19.91 -40.28 17.25 -40.28 Z M 19.34 -0.98 C 22.50 -0.98 24.85 -1.80 26.39 -3.45 C 27.92 -5.09 28.68 -7.43 28.68 -10.46 C 28.68 -13.80 27.73 -16.48 25.82 -18.53 C 23.92 -20.57 21.28 -21.61 17.90 -21.65 C 16.67 -21.69 15.09 -21.64 13.15 -21.51 L 13.15 -5.32 C 13.15 -4.23 13.32 -3.37 13.65 -2.76 C 13.98 -2.14 14.59 -1.69 15.46 -1.40 C 16.34 -1.12 17.63 -0.98 19.34 -0.98 Z M 19.34 -0.98 "/></g></g><g style="fill:#000000;fill-opacity:1;"><g transform="translate(162.96, 191.89)"><path style="stroke:none" d="M 13.42 -5.32 C 13.42 -3.97 13.55 -2.98 13.81 -2.37 C 14.08 -1.75 14.58 -1.34 15.32 -1.12 C 16.07 -0.90 17.26 -0.79 18.89 -0.79 C 18.97 -0.79 19.01 -0.66 19.01 -0.39 C 19.01 -0.12 18.97 0 18.89 0 C 17.52 0 16.44 -0.01 15.65 -0.06 L 10.92 -0.12 L 6.39 -0.06 C 5.55 -0.01 4.43 0 3.03 0 C 2.89 0 2.82 -0.12 2.82 -0.39 C 2.82 -0.66 2.89 -0.79 3.03 -0.79 C 4.65 -0.79 5.83 -0.90 6.57 -1.12 C 7.32 -1.34 7.84 -1.76 8.12 -2.40 C 8.41 -3.03 8.56 -4.01 8.56 -5.32 L 8.56 -35.79 C 8.56 -37.11 8.41 -38.08 8.12 -38.70 C 7.84 -39.31 7.32 -39.74 6.57 -39.98 C 5.83 -40.22 4.65 -40.34 3.03 -40.34 C 2.89 -40.34 2.82 -40.47 2.82 -40.73 C 2.82 -41.00 2.89 -41.14 3.03 -41.14 L 6.39 -41.06 C 8.22 -40.97 9.73 -40.93 10.92 -40.93 C 12.19 -40.93 13.79 -40.97 15.73 -41.06 L 18.89 -41.14 C 18.97 -41.14 19.01 -41.00 19.01 -40.73 C 19.01 -40.47 18.97 -40.34 18.89 -40.34 C 17.30 -40.34 16.12 -40.20 15.35 -39.93 C 14.59 -39.67 14.08 -39.22 13.81 -38.59 C 13.55 -37.95 13.42 -36.98 13.42 -35.67 Z M 13.42 -5.32 "/></g></g><g style="fill:#000000;fill-opacity:1;"><g transform="translate(194.82, 191.89)"><path style="stroke:none" d="M 46.53 -41.14 C 46.66 -41.14 46.73 -41.00 46.73 -40.73 C 46.73 -40.47 46.66 -40.34 46.53 -40.34 C 44.72 -40.34 43.39 -39.80 42.54 -38.73 C 41.69 -37.66 41.26 -35.98 41.26 -33.70 L 41.26 0.79 C 41.26 0.92 41.15 1.00 40.93 1.04 C 40.71 1.09 40.56 1.07 40.46 0.98 L 9.81 -35.73 L 9.60 -36 L 9.60 -7.37 C 9.60 -5.09 10.02 -3.42 10.85 -2.37 C 11.69 -1.32 12.98 -0.79 14.73 -0.79 C 14.86 -0.79 14.93 -0.66 14.93 -0.39 C 14.93 -0.12 14.86 0 14.73 0 C 13.67 0 12.84 -0.01 12.23 -0.06 L 8.89 -0.12 L 5.39 -0.06 C 4.73 -0.01 3.78 0 2.56 0 C 2.47 0 2.43 -0.12 2.43 -0.39 C 2.43 -0.66 2.47 -0.79 2.56 -0.79 C 4.44 -0.79 5.81 -1.32 6.67 -2.37 C 7.53 -3.42 7.96 -5.09 7.96 -7.37 L 7.96 -37.70 C 6.16 -39.46 4.34 -40.34 2.5 -40.34 C 2.36 -40.34 2.29 -40.47 2.29 -40.73 C 2.29 -41.00 2.36 -41.14 2.5 -41.14 L 4.93 -41.06 C 5.45 -41.01 6.20 -41 7.17 -41 L 10.26 -41.06 C 10.61 -41.11 11.08 -41.14 11.65 -41.14 C 12 -41.14 12.25 -41.06 12.40 -40.90 C 12.56 -40.75 12.81 -40.40 13.15 -39.87 C 13.68 -39.09 14.21 -38.36 14.73 -37.70 L 39.62 -7.56 L 39.62 -33.70 C 39.62 -35.98 39.22 -37.66 38.43 -38.73 C 37.64 -39.80 36.34 -40.34 34.54 -40.34 C 34.46 -40.34 34.42 -40.47 34.42 -40.73 C 34.42 -41.00 34.46 -41.14 34.54 -41.14 L 37.12 -41.06 C 38.51 -40.97 39.63 -40.93 40.46 -40.93 C 41.30 -40.93 42.42 -40.97 43.82 -41.06 Z M 46.53 -41.14 "/></g></g><g style="fill:#000000;fill-opacity:1;"><g transform="translate(252.60, 191.89)"><path style="stroke:none" d="M 47.64 -0.79 C 47.77 -0.79 47.84 -0.66 47.84 -0.39 C 47.84 -0.12 47.77 0 47.64 0 C 46.24 0 45.14 -0.01 44.35 -0.06 L 39.68 -0.12 L 34.62 -0.06 C 33.87 -0.01 32.84 0 31.53 0 C 31.39 0 31.32 -0.12 31.32 -0.39 C 31.32 -0.66 31.39 -0.79 31.53 -0.79 C 33.23 -0.79 34.47 -0.90 35.23 -1.12 C 36.00 -1.34 36.53 -1.76 36.81 -2.40 C 37.10 -3.03 37.25 -4.01 37.25 -5.32 L 37.25 -20.67 L 12.70 -20.67 L 12.70 -5.32 C 12.70 -4.01 12.84 -3.03 13.12 -2.40 C 13.41 -1.76 13.94 -1.34 14.70 -1.12 C 15.47 -0.90 16.71 -0.79 18.42 -0.79 C 18.51 -0.79 18.56 -0.66 18.56 -0.39 C 18.56 -0.12 18.51 0 18.42 0 C 17.02 0 15.92 -0.01 15.14 -0.06 L 10.20 -0.12 L 5.59 -0.06 C 4.80 -0.01 3.67 0 2.23 0 C 2.14 0 2.10 -0.12 2.10 -0.39 C 2.10 -0.66 2.14 -0.79 2.23 -0.79 C 3.89 -0.79 5.11 -0.90 5.89 -1.12 C 6.66 -1.34 7.18 -1.76 7.46 -2.40 C 7.75 -3.03 7.89 -4.01 7.89 -5.32 L 7.89 -35.79 C 7.89 -37.11 7.75 -38.08 7.46 -38.70 C 7.18 -39.31 6.66 -39.74 5.89 -39.98 C 5.11 -40.22 3.92 -40.34 2.29 -40.34 C 2.21 -40.34 2.17 -40.47 2.17 -40.73 C 2.17 -41.00 2.21 -41.14 2.29 -41.14 L 5.65 -41.06 C 7.5 -40.97 9.01 -40.93 10.20 -40.93 C 11.51 -40.93 13.17 -40.97 15.20 -41.06 L 18.42 -41.14 C 18.51 -41.14 18.56 -41.00 18.56 -40.73 C 18.56 -40.47 18.51 -40.34 18.42 -40.34 C 16.75 -40.34 15.52 -40.20 14.73 -39.93 C 13.95 -39.67 13.41 -39.22 13.12 -38.59 C 12.84 -37.95 12.70 -36.98 12.70 -35.67 L 12.70 -22.10 L 37.25 -22.10 L 37.25 -35.67 C 37.25 -36.98 37.10 -37.95 36.81 -38.59 C 36.53 -39.22 35.99 -39.67 35.20 -39.93 C 34.42 -40.20 33.19 -40.34 31.53 -40.34 C 31.39 -40.34 31.32 -40.47 31.32 -40.73 C 31.32 -41.00 31.39 -41.14 31.53 -41.14 L 34.62 -41.06 C 36.55 -40.97 38.23 -40.93 39.68 -40.93 C 40.87 -40.93 42.42 -40.97 44.35 -41.06 L 47.64 -41.14 C 47.77 -41.14 47.84 -41.00 47.84 -40.73 C 47.84 -40.47 47.77 -40.34 47.64 -40.34 C 45.97 -40.34 44.75 -40.22 43.98 -39.98 C 43.22 -39.74 42.69 -39.31 42.40 -38.70 C 42.12 -38.08 41.98 -37.11 41.98 -35.79 L 41.98 -5.32 C 41.98 -4.01 42.12 -3.03 42.40 -2.40 C 42.69 -1.76 43.22 -1.34 43.98 -1.12 C 44.75 -0.90 45.97 -0.79 47.64 -0.79 Z M 47.64 -0.79 "/></g></g><g style="fill:#000000;fill-opacity:1;"><g transform="translate(312.50, 191.89)"><path style="stroke:none" d="M 46.20 -0.79 C 46.37 -0.79 46.46 -0.66 46.46 -0.39 C 46.46 -0.12 46.37 0 46.20 0 C 45.36 0 44.07 -0.03 42.31 -0.12 C 40.56 -0.21 39.26 -0.26 38.43 -0.26 C 37.42 -0.26 36.17 -0.21 34.68 -0.12 C 33.28 -0.03 32.17 0 31.39 0 C 31.21 0 31.12 -0.12 31.12 -0.39 C 31.12 -0.66 31.21 -0.79 31.39 -0.79 C 32.97 -0.79 34.10 -0.93 34.78 -1.21 C 35.45 -1.5 35.79 -2.01 35.79 -2.76 C 35.79 -3.42 35.48 -4.40 34.87 -5.71 L 29.21 -17.57 L 13.48 -17.57 L 9.60 -8.56 C 9.03 -7.23 8.75 -6.03 8.75 -4.93 C 8.75 -2.17 10.87 -0.79 15.14 -0.79 C 15.35 -0.79 15.46 -0.66 15.46 -0.39 C 15.46 -0.12 15.35 0 15.14 0 C 14.34 0 13.20 -0.03 11.71 -0.12 C 10.05 -0.21 8.60 -0.26 7.37 -0.26 C 6.26 -0.26 4.92 -0.21 3.35 -0.12 C 2.03 -0.03 0.91 0 0 0 C -0.21 0 -0.32 -0.12 -0.32 -0.39 C -0.32 -0.66 -0.21 -0.79 0 -0.79 C 1.22 -0.79 2.26 -1.02 3.12 -1.48 C 3.97 -1.94 4.80 -2.75 5.59 -3.93 C 6.38 -5.12 7.26 -6.85 8.23 -9.14 L 22.10 -41.65 C 22.20 -41.78 22.37 -41.85 22.64 -41.85 C 22.89 -41.85 23.05 -41.78 23.09 -41.65 L 38.76 -9.01 C 40.25 -5.81 41.52 -3.64 42.57 -2.5 C 43.62 -1.36 44.83 -0.79 46.20 -0.79 Z M 14.07 -18.95 L 28.56 -18.95 L 20.92 -34.87 Z M 14.07 -18.95 "/></g></g><g transform="matrix(1,0,0,1,48,184)"><g clip-path="url(#ee6063cefe)"><g style="fill:#000000;fill-opacity:1;"><g transform="translate(0.39, 97.69)"><path style="stroke:none" d="M 44.81 -11.01 C 45.31 -10.42 45.42 -9.83 45.15 -9.21 C 44.88 -8.60 44.42 -8.29 43.79 -8.29 C 43.25 -8.29 42.99 -8.45 43.01 -8.76 C 43.03 -9.08 43.04 -9.26 43.04 -9.31 C 43.09 -9.90 42.46 -10.46 41.14 -10.98 C 39.82 -11.50 38.10 -11.97 35.96 -12.40 C 33.84 -12.84 31.56 -13.22 29.14 -13.56 C 26.71 -13.90 24.42 -14.20 22.29 -14.45 C 20.17 -14.70 18.45 -14.91 17.14 -15.09 C 16.95 -14.55 16.67 -13.64 16.31 -12.37 C 15.95 -11.10 15.58 -9.71 15.20 -8.21 C 14.81 -6.72 14.51 -5.36 14.31 -4.14 C 14.11 -2.92 14.10 -2.08 14.28 -1.62 C 14.41 -1.26 14.33 -0.92 14.04 -0.60 C 13.75 -0.29 13.39 -0.09 12.98 0 C 12.57 0.09 12.30 -0.03 12.17 -0.40 C 11.99 -1.08 12.00 -2.07 12.20 -3.39 C 12.41 -4.71 12.71 -6.14 13.12 -7.68 C 13.53 -9.22 13.94 -10.68 14.37 -12.06 C 14.81 -13.44 15.16 -14.55 15.43 -15.37 C 15.12 -15.45 14.80 -15.51 14.48 -15.56 C 14.17 -15.61 13.83 -15.66 13.46 -15.70 C 12.37 -15.92 11.87 -16.37 11.96 -17.03 C 12.06 -17.68 12.56 -18.19 13.46 -18.56 C 13.96 -18.78 14.51 -19.03 15.12 -19.28 C 15.73 -19.53 16.38 -19.81 17.06 -20.12 C 17.42 -21.12 17.93 -22.53 18.59 -24.34 C 19.25 -26.15 20.04 -28.20 20.95 -30.5 C 21.85 -32.78 22.81 -35.14 23.82 -37.57 C 24.84 -40.00 25.87 -42.32 26.92 -44.54 C 27.97 -46.76 28.99 -48.71 29.98 -50.39 C 30.98 -52.06 31.89 -53.28 32.71 -54.06 C 33.30 -54.65 33.89 -54.93 34.51 -54.90 C 35.12 -54.88 35.32 -54.56 35.09 -53.93 C 34.91 -53.38 34.65 -53.07 34.31 -53 C 33.96 -52.93 33.75 -52.88 33.67 -52.84 C 33.07 -52.47 32.34 -51.54 31.48 -50.04 C 30.62 -48.55 29.69 -46.73 28.67 -44.57 C 27.64 -42.42 26.62 -40.12 25.60 -37.70 C 24.58 -35.28 23.63 -32.95 22.75 -30.70 C 21.86 -28.46 21.10 -26.48 20.46 -24.78 C 19.83 -23.08 19.39 -21.89 19.17 -21.21 C 23.25 -23.35 27.16 -25.89 30.90 -28.82 C 34.64 -31.77 38.08 -34.99 41.23 -38.48 C 44.39 -41.98 47.08 -45.63 49.31 -49.43 C 51.66 -53.42 53.04 -56.73 53.45 -59.35 C 53.85 -61.99 53.31 -63.77 51.81 -64.70 C 50.32 -65.64 47.91 -65.53 44.57 -64.40 C 41.24 -63.26 37.01 -60.93 31.89 -57.40 C 28.45 -55.03 25.14 -52.45 21.96 -49.64 C 18.78 -46.82 15.88 -44.05 13.25 -41.31 C 10.62 -38.57 8.40 -36.06 6.59 -33.79 C 6.14 -33.25 5.61 -32.55 5 -31.68 C 4.38 -30.83 3.81 -29.98 3.29 -29.14 C 2.77 -28.30 2.42 -27.61 2.23 -27.06 C 2.05 -26.51 2.19 -26.29 2.65 -26.39 C 3.15 -26.52 3.45 -26.42 3.56 -26.10 C 3.67 -25.79 3.62 -25.45 3.42 -25.09 C 3.22 -24.72 2.87 -24.47 2.37 -24.34 C 2.06 -24.30 1.68 -24.35 1.25 -24.51 C 0.82 -24.67 0.56 -24.95 0.46 -25.35 C 0.33 -26.04 0.54 -26.96 1.10 -28.12 C 1.67 -29.28 2.38 -30.43 3.21 -31.59 C 4.06 -32.75 4.78 -33.68 5.37 -34.40 C 7.63 -37.26 10.17 -40.17 13.01 -43.10 C 15.85 -46.05 18.81 -48.89 21.89 -51.60 C 24.97 -54.33 28.01 -56.74 31.01 -58.82 C 35.95 -62.31 40.30 -64.71 44.06 -66.03 C 47.83 -67.35 50.73 -67.59 52.76 -66.75 C 54.80 -65.90 55.75 -64.00 55.59 -61.06 C 55.43 -58.12 53.90 -54.11 51 -49.03 C 48.78 -45.17 45.99 -41.35 42.64 -37.56 C 39.28 -33.78 35.54 -30.28 31.42 -27.06 C 27.29 -23.84 22.94 -21.10 18.35 -18.84 C 18.26 -18.57 18.17 -18.29 18.07 -18.01 C 17.99 -17.74 17.90 -17.47 17.81 -17.20 C 18.81 -17.06 20.28 -16.86 22.23 -16.59 C 24.17 -16.32 26.32 -16.00 28.65 -15.64 C 31 -15.27 33.30 -14.85 35.56 -14.37 C 37.83 -13.90 39.80 -13.38 41.48 -12.81 C 43.16 -12.25 44.26 -11.64 44.81 -11.01 Z M 15.57 -17.54 C 15.66 -17.54 15.75 -17.53 15.84 -17.51 C 15.93 -17.49 16.03 -17.48 16.12 -17.48 C 16.16 -17.56 16.18 -17.62 16.18 -17.67 C 16.18 -17.72 16.20 -17.76 16.25 -17.81 C 16.16 -17.76 16.05 -17.72 15.90 -17.67 C 15.76 -17.62 15.66 -17.58 15.57 -17.54 Z M 15.57 -17.54 "/></g><g transform="translate(51.87, 97.69)"><path style="stroke:none" d="M 21.62 -30.20 C 21.89 -30.47 22.14 -30.52 22.37 -30.35 C 22.60 -30.20 22.58 -29.98 22.31 -29.71 C 20.31 -27.5 18.14 -25.25 15.81 -22.98 C 13.47 -20.72 10.99 -18.86 8.35 -17.40 C 6.17 -16.18 4.18 -15.44 2.37 -15.17 C 0.56 -14.89 -0.94 -15.09 -2.14 -15.75 C -3.33 -16.40 -4.08 -17.47 -4.37 -18.96 C -4.67 -20.46 -4.37 -22.37 -3.46 -24.68 C -2.42 -27.36 -0.95 -29.58 0.95 -31.34 C 2.85 -33.11 4.67 -34.22 6.39 -34.68 C 7.79 -35.09 8.78 -34.95 9.37 -34.26 C 9.96 -33.58 10.09 -32.67 9.75 -31.54 C 9.41 -30.42 8.52 -29.31 7.07 -28.21 C 5.80 -27.26 4.42 -26.61 2.95 -26.25 C 1.48 -25.88 0.06 -25.67 -1.29 -25.64 C -2.56 -22.92 -2.88 -20.83 -2.25 -19.37 C -1.61 -17.92 -0.37 -17.15 1.45 -17.06 C 3.29 -16.97 5.44 -17.59 7.89 -18.90 C 10.29 -20.21 12.68 -21.93 15.06 -24.06 C 17.44 -26.19 19.63 -28.24 21.62 -30.20 Z M 6.25 -32.98 C 5.39 -32.75 4.36 -32.18 3.15 -31.28 C 1.95 -30.37 0.85 -29.17 -0.14 -27.67 C 0.85 -27.72 1.93 -27.87 3.09 -28.12 C 4.25 -28.37 5.28 -28.85 6.18 -29.57 C 7.32 -30.39 7.91 -31.23 7.95 -32.09 C 8.00 -32.95 7.43 -33.25 6.25 -32.98 Z M 6.32 -40.18 C 6.82 -40.73 7.26 -40.96 7.65 -40.87 C 8.03 -40.78 8.26 -40.53 8.32 -40.12 C 8.39 -39.71 8.14 -39.33 7.54 -38.96 C 6.54 -38.37 5.92 -37.96 5.70 -37.73 C 5.48 -37.51 5.34 -37.38 5.29 -37.34 C 5.02 -37.11 4.77 -37.05 4.54 -37.17 C 4.32 -37.28 4.30 -37.47 4.48 -37.75 C 4.71 -38.15 4.99 -38.57 5.32 -39 C 5.67 -39.43 6.00 -39.83 6.32 -40.18 Z M 6.32 -40.18 "/></g><g transform="translate(73.16, 97.69)"><path style="stroke:none" d="M 32.57 -30.26 C 32.89 -30.53 33.14 -30.56 33.35 -30.35 C 33.56 -30.16 33.50 -29.92 33.18 -29.65 C 31.41 -27.97 29.51 -26.20 27.5 -24.34 C 25.48 -22.48 23.44 -20.99 21.35 -19.85 C 19.49 -18.85 17.96 -18.30 16.76 -18.18 C 15.56 -18.07 14.61 -18.26 13.90 -18.76 C 13.20 -19.26 12.69 -19.94 12.37 -20.81 C 12.06 -21.67 11.86 -22.56 11.79 -23.46 C 11.73 -24.37 11.70 -25.16 11.70 -25.84 C 11.78 -27.78 11.53 -29.03 10.93 -29.57 C 10.35 -30.12 9.59 -30.14 8.67 -29.60 C 7.74 -29.08 6.75 -28.17 5.71 -26.85 C 4.85 -25.77 4.00 -24.58 3.18 -23.29 C 2.37 -22.00 1.61 -20.76 0.90 -19.57 C 0.20 -18.39 -0.41 -17.42 -0.95 -16.65 C -1.85 -15.47 -2.64 -14.93 -3.29 -15.03 C -3.95 -15.12 -4.32 -15.59 -4.42 -16.45 C -4.51 -17.49 -4.35 -18.84 -3.93 -20.5 C -3.53 -22.15 -2.96 -23.89 -2.23 -25.70 C -1.51 -27.51 -0.76 -29.12 0 -30.53 C 0.22 -30.98 0.53 -31.25 0.92 -31.34 C 1.30 -31.43 1.62 -31.37 1.87 -31.17 C 2.12 -30.97 2.13 -30.64 1.90 -30.20 C 1.5 -29.42 0.98 -28.37 0.37 -27.03 C -0.23 -25.69 -0.81 -24.31 -1.35 -22.89 C -1.89 -21.46 -2.31 -20.17 -2.60 -19.01 C -2.91 -17.85 -2.94 -17.05 -2.71 -16.59 C -2.21 -17 -1.61 -17.82 -0.90 -19.07 C -0.20 -20.32 0.59 -21.73 1.5 -23.29 C 2.40 -24.85 3.37 -26.31 4.42 -27.67 C 5.82 -29.49 7.28 -30.75 8.79 -31.45 C 10.31 -32.16 11.59 -32.14 12.64 -31.42 C 13.69 -30.69 14.14 -29.08 14.01 -26.59 C 13.96 -25.76 13.95 -24.85 14 -23.85 C 14.05 -22.86 14.28 -22 14.68 -21.25 C 15.09 -20.5 15.79 -20.06 16.79 -19.95 C 17.79 -19.84 19.20 -20.26 21.01 -21.21 C 22.78 -22.12 24.63 -23.40 26.56 -25.06 C 28.48 -26.71 30.49 -28.45 32.57 -30.26 Z M 32.57 -30.26 "/></g><g transform="translate(105.39, 97.69)"><path style="stroke:none" d="M 24.28 -30.26 C 24.59 -30.49 24.83 -30.51 25.01 -30.32 C 25.20 -30.14 25.16 -29.92 24.89 -29.65 C 21.80 -26.70 18.83 -24.43 15.98 -22.84 C 13.12 -21.25 9.88 -20.31 6.25 -20 C 5.12 -18.26 3.87 -17.00 2.51 -16.21 C 1.14 -15.42 -0.10 -15.06 -1.26 -15.12 C -2.42 -15.19 -3.33 -15.68 -4.01 -16.59 C -4.69 -17.5 -4.91 -18.81 -4.68 -20.53 C -4.46 -21.89 -4.01 -23.28 -3.32 -24.68 C -3.28 -26.05 -2.91 -27.28 -2.20 -28.39 C -1.50 -29.50 -0.62 -30.44 0.43 -31.21 C 1.50 -31.98 2.60 -32.50 3.73 -32.78 C 4.86 -33.05 5.89 -33.00 6.79 -32.64 C 7.70 -32.27 8.35 -31.53 8.76 -30.42 C 9.17 -29.31 9.16 -27.74 8.70 -25.70 C 8.52 -25.11 8.33 -24.51 8.12 -23.90 C 7.92 -23.28 7.66 -22.66 7.34 -22.03 C 10.69 -22.25 13.62 -23.08 16.14 -24.51 C 18.66 -25.94 21.37 -27.85 24.28 -30.26 Z M 7.07 -25.5 C 7.52 -27.76 7.25 -29.32 6.25 -30.15 C 5.25 -31 4.10 -31.12 2.78 -30.53 C 3.14 -30.35 3.25 -30.06 3.12 -29.65 C 2.98 -29.25 2.69 -28.92 2.25 -28.70 C 1.56 -28.37 0.93 -27.86 0.37 -27.15 C -0.18 -26.45 -0.64 -25.78 -1.01 -25.15 C -0.92 -24.25 -0.53 -23.55 0.15 -23.07 C 0.86 -22.60 1.72 -22.30 2.75 -22.17 C 3.76 -22.03 4.78 -21.96 5.78 -21.96 C 6.09 -22.55 6.35 -23.14 6.56 -23.73 C 6.76 -24.32 6.94 -24.91 7.07 -25.5 Z M -2.31 -21.90 C -2.71 -20.17 -2.59 -18.87 -1.93 -18.01 C -1.28 -17.16 -0.35 -16.86 0.84 -17.14 C 2.05 -17.41 3.26 -18.33 4.48 -19.92 C 3.17 -19.87 1.89 -19.99 0.64 -20.26 C -0.59 -20.53 -1.58 -21.08 -2.31 -21.90 Z M -2.31 -21.90 "/></g><g transform="translate(128.85, 97.69)"><path style="stroke:none" d="M 27.60 -30.20 C 27.97 -30.55 28.24 -30.60 28.42 -30.35 C 28.60 -30.10 28.56 -29.87 28.29 -29.65 C 25.92 -27.47 23.67 -25.83 21.51 -24.71 C 19.36 -23.61 17.41 -22.89 15.64 -22.54 C 13.86 -22.20 12.36 -22.12 11.14 -22.32 C 9.92 -22.53 9.06 -22.89 8.56 -23.39 C 7.97 -22.39 7.21 -21.25 6.28 -19.95 C 5.35 -18.66 4.35 -17.55 3.29 -16.62 C 2.23 -15.69 1.17 -15.23 0.14 -15.23 C -1.08 -15.23 -1.90 -15.80 -2.31 -16.93 C -2.71 -18.07 -2.82 -19.53 -2.64 -21.31 C -2.46 -23.10 -2.09 -24.96 -1.53 -26.89 C -0.96 -28.81 -0.30 -30.53 0.46 -32.03 C 0.83 -32.70 1.32 -33 1.93 -32.90 C 2.55 -32.82 2.72 -32.46 2.45 -31.82 C 2.12 -31.05 1.76 -30.05 1.35 -28.82 C 0.95 -27.60 0.56 -26.31 0.20 -24.95 C -0.16 -23.59 -0.41 -22.31 -0.54 -21.10 C -0.67 -19.91 -0.64 -18.92 -0.43 -18.15 C -0.23 -17.38 0.22 -16.97 0.95 -16.93 C 1.45 -16.93 2.03 -17.19 2.71 -17.71 C 3.39 -18.23 4.07 -18.89 4.75 -19.68 C 5.43 -20.47 6.07 -21.28 6.65 -22.12 C 7.25 -22.96 7.70 -23.66 8.03 -24.21 C 7.57 -25.03 7.46 -26.04 7.71 -27.26 C 7.96 -28.49 8.42 -29.64 9.10 -30.73 C 9.87 -31.92 10.62 -32.58 11.35 -32.71 C 12.08 -32.85 12.35 -32.44 12.17 -31.48 C 11.99 -30.48 11.66 -29.44 11.18 -28.35 C 10.70 -27.27 10.19 -26.20 9.65 -25.15 C 10.01 -24.43 11.03 -23.98 12.71 -23.79 C 14.39 -23.61 16.53 -23.99 19.14 -24.92 C 21.75 -25.84 24.57 -27.60 27.60 -30.20 Z M 10.06 -29.65 C 9.88 -29.19 9.72 -28.73 9.59 -28.28 C 9.45 -27.83 9.36 -27.35 9.31 -26.85 C 9.53 -27.39 9.71 -27.91 9.82 -28.39 C 9.94 -28.86 10.01 -29.28 10.06 -29.65 Z M 10.06 -29.65 "/></g></g><g style="fill:#000000;fill-opacity:1;"><g transform="translate(155.85, 97.69)"><path style="stroke:none" d="M 28.15 -30.20 C 28.42 -30.47 28.67 -30.53 28.90 -30.40 C 29.13 -30.26 29.13 -30.03 28.90 -29.71 C 27.22 -27.63 25.31 -25.47 23.15 -23.25 C 21 -21.03 18.78 -19.19 16.53 -17.75 C 14.35 -16.30 12.32 -15.42 10.43 -15.12 C 8.55 -14.83 7.14 -15.17 6.21 -16.14 C 5.28 -17.11 5.14 -18.78 5.78 -21.15 C 6.14 -22.46 6.60 -23.76 7.17 -25.06 C 7.74 -26.35 8.18 -27.42 8.5 -28.29 C 8.72 -28.92 8.75 -29.33 8.59 -29.51 C 8.43 -29.69 8.06 -29.32 7.48 -28.42 C 7.02 -27.70 6.42 -26.67 5.67 -25.35 C 4.92 -24.04 4.24 -22.84 3.60 -21.76 C 1.87 -18.91 0.25 -16.98 -1.25 -15.98 C -2.76 -14.98 -3.96 -14.74 -4.82 -15.26 C -5.69 -15.78 -6.03 -16.86 -5.84 -18.5 C -5.66 -19.63 -5.28 -20.92 -4.71 -22.37 C -4.15 -23.82 -3.45 -25.25 -2.60 -26.68 C -1.77 -28.11 -0.87 -29.31 0.09 -30.29 C 1.07 -31.27 2.03 -31.84 2.98 -32 C 3.94 -32.15 4.80 -31.71 5.57 -30.67 C 5.80 -30.39 5.79 -30.08 5.54 -29.71 C 5.29 -29.35 4.96 -29.09 4.54 -28.93 C 4.14 -28.78 3.82 -28.83 3.60 -29.10 C 3.10 -29.74 2.55 -29.94 1.93 -29.71 C 1.32 -29.48 0.69 -28.96 0.06 -28.15 C -0.57 -27.34 -1.16 -26.37 -1.70 -25.26 C -2.24 -24.14 -2.67 -23.02 -3.01 -21.89 C -3.35 -20.76 -3.57 -19.78 -3.67 -18.96 C -3.76 -17.61 -3.52 -16.96 -2.95 -17.03 C -2.39 -17.10 -1.64 -17.62 -0.70 -18.59 C 0.22 -19.57 1.16 -20.76 2.10 -22.17 C 2.92 -23.44 3.65 -24.61 4.31 -25.70 C 4.96 -26.79 5.66 -27.83 6.39 -28.82 C 7.56 -30.28 8.51 -30.95 9.25 -30.84 C 9.97 -30.72 10.16 -29.92 9.79 -28.42 C 9.52 -27.33 9.16 -26.20 8.70 -25.03 C 8.25 -23.85 7.89 -22.64 7.60 -21.42 C 7.25 -19.60 7.43 -18.37 8.15 -17.71 C 8.88 -17.06 9.95 -16.89 11.35 -17.20 C 12.76 -17.52 14.25 -18.17 15.84 -19.17 C 18.38 -20.76 20.70 -22.61 22.81 -24.71 C 24.92 -26.83 26.70 -28.66 28.15 -30.20 Z M 28.15 -30.20 "/></g></g><g style="fill:#000000;fill-opacity:1;"><g transform="translate(183.67, 97.69)"><path style="stroke:none" d="M 16.79 -30.12 C 17.02 -30.39 17.25 -30.47 17.46 -30.35 C 17.69 -30.25 17.72 -30.06 17.54 -29.78 C 16.45 -28.28 15.25 -26.67 13.93 -24.95 C 12.62 -23.23 11.25 -21.60 9.82 -20.06 C 8.39 -18.51 6.94 -17.25 5.46 -16.28 C 4 -15.31 2.51 -14.82 1.01 -14.82 C -0.29 -14.86 -1.23 -15.36 -1.79 -16.31 C -2.36 -17.26 -2.62 -18.53 -2.57 -20.09 C -2.53 -21.65 -2.29 -23.41 -1.85 -25.35 C -1.42 -27.31 -0.87 -29.30 -0.20 -31.31 C 0.47 -33.33 1.18 -35.25 1.93 -37.09 C 2.68 -38.93 3.35 -40.53 3.93 -41.89 C 4.25 -42.56 4.72 -43.53 5.32 -44.78 C 5.94 -46.03 6.63 -47.37 7.40 -48.82 C 8.17 -50.27 8.99 -51.66 9.85 -53 C 10.72 -54.34 11.56 -55.44 12.37 -56.31 C 13.19 -57.17 13.94 -57.60 14.62 -57.60 C 15.16 -57.60 15.35 -57.32 15.20 -56.75 C 15.04 -56.18 14.67 -55.85 14.07 -55.76 C 13.53 -55.45 12.87 -54.67 12.10 -53.45 C 11.33 -52.23 10.53 -50.85 9.68 -49.31 C 8.85 -47.76 8.09 -46.29 7.40 -44.89 C 6.72 -43.48 6.23 -42.41 5.92 -41.68 C 5.46 -40.68 4.91 -39.39 4.28 -37.81 C 3.64 -36.22 3 -34.50 2.34 -32.64 C 1.68 -30.78 1.10 -28.92 0.60 -27.06 C 0.10 -25.20 -0.22 -23.5 -0.40 -21.93 C -0.59 -20.37 -0.52 -19.10 -0.20 -18.12 C 0.10 -17.14 0.74 -16.63 1.70 -16.59 C 2.83 -16.55 4.02 -16.95 5.26 -17.81 C 6.51 -18.67 7.79 -19.78 9.10 -21.14 C 10.42 -22.50 11.72 -23.97 13.01 -25.56 C 14.31 -27.15 15.57 -28.67 16.79 -30.12 Z M -7.48 -47.32 L 37.60 -46.85 C 37.97 -46.85 38.08 -46.68 37.95 -46.34 C 37.81 -46.00 37.56 -45.84 37.20 -45.84 L -8.23 -45.29 C -8.67 -45.29 -8.91 -45.46 -8.93 -45.79 C -8.96 -46.14 -8.84 -46.47 -8.56 -46.81 C -8.28 -47.15 -7.92 -47.32 -7.48 -47.32 Z M -7.48 -47.32 "/></g></g><g style="fill:#000000;fill-opacity:1;"><g transform="translate(199.92, 97.69)"><path style="stroke:none" d="M 18.43 -30.20 C 18.70 -30.47 18.96 -30.53 19.21 -30.40 C 19.46 -30.26 19.47 -30.03 19.25 -29.71 C 17.65 -27.67 15.89 -25.50 13.96 -23.21 C 12.03 -20.93 9.96 -19.04 7.75 -17.54 C 5.84 -16.23 4.00 -15.42 2.23 -15.12 C 0.47 -14.83 -0.94 -15.11 -2.03 -15.98 C -3.12 -16.84 -3.62 -18.39 -3.53 -20.60 C -3.44 -22.24 -3.07 -23.92 -2.40 -25.64 C -1.75 -27.35 -0.92 -28.92 0.06 -30.32 C 0.38 -30.78 0.73 -31.02 1.12 -31.04 C 1.50 -31.06 1.78 -30.95 1.96 -30.70 C 2.15 -30.45 2.08 -30.10 1.76 -29.65 C 0.76 -28.19 -0.02 -26.77 -0.60 -25.39 C -1.20 -24.01 -1.51 -22.60 -1.56 -21.15 C -1.60 -19.47 -1.20 -18.33 -0.35 -17.71 C 0.47 -17.10 1.56 -16.92 2.92 -17.20 C 4.28 -17.47 5.67 -18.06 7.07 -18.96 C 9.11 -20.28 11.11 -22.02 13.06 -24.17 C 15.00 -26.32 16.80 -28.33 18.43 -30.20 Z M 4.07 -34.20 C 4.07 -34.20 4.10 -34.20 4.15 -34.20 C 4.10 -34.20 4.07 -34.20 4.07 -34.20 Z M 4.28 -34.34 C 3.87 -34.03 3.55 -33.70 3.32 -33.35 C 3.10 -33.01 2.90 -32.73 2.71 -32.51 C 2.58 -32.23 2.37 -32.08 2.10 -32.06 C 1.83 -32.03 1.70 -32.16 1.70 -32.43 C 1.70 -32.75 1.74 -33.06 1.82 -33.35 C 1.92 -33.64 2.01 -33.95 2.10 -34.28 C 2.33 -34.78 2.59 -35.25 2.89 -35.70 C 3.17 -36.16 3.60 -36.47 4.15 -36.65 C 4.50 -36.75 4.82 -36.72 5.09 -36.59 C 5.37 -36.45 5.51 -36.20 5.51 -35.84 C 5.46 -35.30 5.25 -34.92 4.89 -34.71 C 4.53 -34.50 4.33 -34.38 4.28 -34.34 Z M 4.28 -34.34 "/></g></g><g style="fill:#000000;fill-opacity:1;"><g transform="translate(218.08, 97.69)"><path style="stroke:none" d="M 24.28 -30.26 C 24.59 -30.49 24.83 -30.51 25.01 -30.32 C 25.20 -30.14 25.16 -29.92 24.89 -29.65 C 21.80 -26.70 18.83 -24.43 15.98 -22.84 C 13.12 -21.25 9.88 -20.31 6.25 -20 C 5.12 -18.26 3.87 -17.00 2.51 -16.21 C 1.14 -15.42 -0.10 -15.06 -1.26 -15.12 C -2.42 -15.19 -3.33 -15.68 -4.01 -16.59 C -4.69 -17.5 -4.91 -18.81 -4.68 -20.53 C -4.46 -21.89 -4.01 -23.28 -3.32 -24.68 C -3.28 -26.05 -2.91 -27.28 -2.20 -28.39 C -1.50 -29.50 -0.62 -30.44 0.43 -31.21 C 1.50 -31.98 2.60 -32.50 3.73 -32.78 C 4.86 -33.05 5.89 -33.00 6.79 -32.64 C 7.70 -32.27 8.35 -31.53 8.76 -30.42 C 9.17 -29.31 9.16 -27.74 8.70 -25.70 C 8.52 -25.11 8.33 -24.51 8.12 -23.90 C 7.92 -23.28 7.66 -22.66 7.34 -22.03 C 10.69 -22.25 13.62 -23.08 16.14 -24.51 C 18.66 -25.94 21.37 -27.85 24.28 -30.26 Z M 7.07 -25.5 C 7.52 -27.76 7.25 -29.32 6.25 -30.15 C 5.25 -31 4.10 -31.12 2.78 -30.53 C 3.14 -30.35 3.25 -30.06 3.12 -29.65 C 2.98 -29.25 2.69 -28.92 2.25 -28.70 C 1.56 -28.37 0.93 -27.86 0.37 -27.15 C -0.18 -26.45 -0.64 -25.78 -1.01 -25.15 C -0.92 -24.25 -0.53 -23.55 0.15 -23.07 C 0.86 -22.60 1.72 -22.30 2.75 -22.17 C 3.76 -22.03 4.78 -21.96 5.78 -21.96 C 6.09 -22.55 6.35 -23.14 6.56 -23.73 C 6.76 -24.32 6.94 -24.91 7.07 -25.5 Z M -2.31 -21.90 C -2.71 -20.17 -2.59 -18.87 -1.93 -18.01 C -1.28 -17.16 -0.35 -16.86 0.84 -17.14 C 2.05 -17.41 3.26 -18.33 4.48 -19.92 C 3.17 -19.87 1.89 -19.99 0.64 -20.26 C -0.59 -20.53 -1.58 -21.08 -2.31 -21.90 Z M -2.31 -21.90 "/></g></g><g style="fill:#000000;fill-opacity:1;"><g transform="translate(241.54, 97.69)"><path style="stroke:none" d="M 32.57 -30.26 C 32.89 -30.53 33.14 -30.56 33.35 -30.35 C 33.56 -30.16 33.50 -29.92 33.18 -29.65 C 31.41 -27.97 29.51 -26.20 27.5 -24.34 C 25.48 -22.48 23.44 -20.99 21.35 -19.85 C 19.49 -18.85 17.96 -18.30 16.76 -18.18 C 15.56 -18.07 14.61 -18.26 13.90 -18.76 C 13.20 -19.26 12.69 -19.94 12.37 -20.81 C 12.06 -21.67 11.86 -22.56 11.79 -23.46 C 11.73 -24.37 11.70 -25.16 11.70 -25.84 C 11.78 -27.78 11.53 -29.03 10.93 -29.57 C 10.35 -30.12 9.59 -30.14 8.67 -29.60 C 7.74 -29.08 6.75 -28.17 5.71 -26.85 C 4.85 -25.77 4.00 -24.58 3.18 -23.29 C 2.37 -22.00 1.61 -20.76 0.90 -19.57 C 0.20 -18.39 -0.41 -17.42 -0.95 -16.65 C -1.85 -15.47 -2.64 -14.93 -3.29 -15.03 C -3.95 -15.12 -4.32 -15.59 -4.42 -16.45 C -4.51 -17.49 -4.35 -18.84 -3.93 -20.5 C -3.53 -22.15 -2.96 -23.89 -2.23 -25.70 C -1.51 -27.51 -0.76 -29.12 0 -30.53 C 0.22 -30.98 0.53 -31.25 0.92 -31.34 C 1.30 -31.43 1.62 -31.37 1.87 -31.17 C 2.12 -30.97 2.13 -30.64 1.90 -30.20 C 1.5 -29.42 0.98 -28.37 0.37 -27.03 C -0.23 -25.69 -0.81 -24.31 -1.35 -22.89 C -1.89 -21.46 -2.31 -20.17 -2.60 -19.01 C -2.91 -17.85 -2.94 -17.05 -2.71 -16.59 C -2.21 -17 -1.61 -17.82 -0.90 -19.07 C -0.20 -20.32 0.59 -21.73 1.5 -23.29 C 2.40 -24.85 3.37 -26.31 4.42 -27.67 C 5.82 -29.49 7.28 -30.75 8.79 -31.45 C 10.31 -32.16 11.59 -32.14 12.64 -31.42 C 13.69 -30.69 14.14 -29.08 14.01 -26.59 C 13.96 -25.76 13.95 -24.85 14 -23.85 C 14.05 -22.86 14.28 -22 14.68 -21.25 C 15.09 -20.5 15.79 -20.06 16.79 -19.95 C 17.79 -19.84 19.20 -20.26 21.01 -21.21 C 22.78 -22.12 24.63 -23.40 26.56 -25.06 C 28.48 -26.71 30.49 -28.45 32.57 -30.26 Z M 32.57 -30.26 "/></g></g></g></g></g></g></g></svg>